<?xml version="1.0" encoding="UTF-8"?>
<svg version="1.1" xmlns="http://www.w3.org/2000/svg" width="512" height="512">
<path d="M0 0 C168.96 0 337.92 0 512 0 C512 168.96 512 337.92 512 512 C343.04 512 174.08 512 0 512 C0 343.04 0 174.08 0 0 Z " fill="#FEFEFE" transform="translate(0,0)"/>
<path d="M0 0 C1.04436218 -0.00029205 2.08872437 -0.00058411 3.16473389 -0.00088501 C6.61145377 0.00050663 10.05795661 0.01606026 13.50463867 0.03173828 C15.89645774 0.035469 18.28827834 0.03831569 20.68009949 0.04031372 C26.97163115 0.04794555 33.26307029 0.06759029 39.55456543 0.08972168 C45.97606149 0.11018973 52.39757251 0.1193175 58.8190918 0.12939453 C71.41613645 0.15083651 84.01311701 0.18458202 96.61010742 0.22705078 C94.5848552 6.44486573 91.81221965 11.99726682 88.79760742 17.78955078 C88.01546875 19.3315918 88.01546875 19.3315918 87.2175293 20.90478516 C84.54040656 26.06183933 82.1939486 30.57117745 77.61010742 34.22705078 C76.95010742 34.22705078 76.29010742 34.22705078 75.61010742 34.22705078 C75.61010742 34.88705078 75.61010742 35.54705078 75.61010742 36.22705078 C72.0747955 38.41067558 69.21156585 38.47797337 65.10083008 38.48242188 C64.4563945 38.48604233 63.81195892 38.48966278 63.147995 38.49339294 C61.75282834 38.50026998 60.35763488 38.50279556 58.96245193 38.50144577 C56.75077479 38.50047804 54.53958037 38.51345158 52.32797241 38.53042603 C46.04152154 38.57662219 39.7551207 38.60129759 33.46850586 38.60791016 C29.61871569 38.61293534 25.76943024 38.637235 21.91981125 38.67323685 C20.45668956 38.6830112 18.99349823 38.68537969 17.53035355 38.68006516 C15.47908144 38.6729641 13.42930475 38.69033531 11.37817383 38.71289062 C9.63088486 38.71716568 9.63088486 38.71716568 7.84829712 38.7215271 C2.93836005 39.48803237 -0.15246132 41.91910414 -3.51489258 45.47314453 C-6.3003383 49.56426793 -8.30094041 53.95638569 -10.38989258 58.43212891 C-12.82923914 63.50616034 -15.21765709 66.86308896 -20.07739258 69.91455078 C-23.04225698 72.87941519 -23.29124494 74.94808193 -23.52661133 79.04345703 C-23.27783851 83.01671434 -21.5024945 85.12041126 -18.77545166 87.83283997 C-15.40204026 89.80438898 -12.20903915 89.66667308 -8.40844727 89.65942383 C-7.60807037 89.66961548 -6.80769348 89.67980713 -5.98306274 89.69030762 C-3.34255999 89.72045597 -0.70241989 89.72970626 1.93823242 89.73876953 C3.77098803 89.75561487 5.60373208 89.77376492 7.4364624 89.79316711 C12.25655504 89.84068903 17.0766008 89.87048421 21.89685059 89.89660645 C26.81698872 89.9264009 31.73696529 89.97293506 36.65698242 90.01806641 C46.30793961 90.10412446 55.95893003 90.17145864 65.61010742 90.22705078 C65.14877694 91.68041099 64.68148802 93.13188082 64.21166992 94.58251953 C63.82229248 95.79524536 63.82229248 95.79524536 63.42504883 97.0324707 C62.51600842 99.4804528 61.251955 101.21205603 59.61010742 103.22705078 C58.90495896 105.37439005 58.90495896 105.37439005 58.61010742 107.22705078 C57.95010742 107.22705078 57.29010742 107.22705078 56.61010742 107.22705078 C56.50698242 107.93990234 56.40385742 108.65275391 56.29760742 109.38720703 C55.52170877 112.59219748 54.3316797 114.85504047 52.61010742 117.66455078 C52.07385742 118.57076172 51.53760742 119.47697266 50.98510742 120.41064453 C46.74940591 125.43357346 42.68186428 128.75964928 36.02236938 129.77296448 C31.67318606 130.04609998 27.32824858 129.98272574 22.97338867 129.91845703 C21.36395094 129.9148739 19.75450684 129.91352378 18.14506531 129.91429138 C14.78689785 129.90962083 11.42970078 129.88493725 8.07177734 129.84448242 C3.77780163 129.79339037 -0.51511537 129.78204429 -4.80935955 129.78431797 C-8.12693801 129.7835007 -11.44428729 129.76702465 -14.76178932 129.74531364 C-16.34494103 129.73580302 -17.92811853 129.72986303 -19.51129723 129.72763252 C-21.72477497 129.721095 -23.93715158 129.69477088 -26.15039062 129.6628418 C-27.40675827 129.6514064 -28.66312592 129.63997101 -29.95756531 129.62818909 C-36.24976097 128.89281611 -40.39518639 126.02069821 -44.38989258 121.22705078 C-45.90953738 118.70175868 -47.28436955 116.13353928 -48.63208008 113.51220703 C-49.9429174 111.06239773 -51.29158499 108.75273142 -52.77270508 106.41064453 C-57.9751789 98.05032395 -61.42643937 91.37111615 -59.38989258 81.22705078 C-57.23787259 73.83069378 -53.41584056 67.31265417 -49.53540039 60.7019043 C-47.05066476 56.45820109 -44.79895914 52.14438728 -42.63989258 47.72705078 C-38.88506725 40.0629355 -34.81839437 32.58415989 -30.68969727 25.11572266 C-27.82576735 19.92139601 -25.10680235 14.69785963 -22.57226562 9.33398438 C-17.61292898 0.49667791 -9.10624269 -0.06664163 0 0 Z " fill="#010101" transform="translate(308.389892578125,151.77294921875)"/>
<path d="M0 0 C0.83496002 0.00565979 1.66992004 0.01131958 2.53018188 0.01715088 C5.17957516 0.03942277 7.82758266 0.08959977 10.4765625 0.140625 C12.27992829 0.16070198 14.08331542 0.17895065 15.88671875 0.1953125 C20.29219519 0.23925714 24.69664444 0.30821899 29.1015625 0.390625 C28.03608966 3.75246209 26.9948513 6.8968132 25.19140625 9.93359375 C24.84142578 10.53236328 24.49144531 11.13113281 24.13085938 11.74804688 C23.59041992 12.65393555 23.59041992 12.65393555 23.0390625 13.578125 C20.21285329 18.30953302 20.21285329 18.30953302 18.1015625 23.390625 C17.4415625 23.390625 16.7815625 23.390625 16.1015625 23.390625 C15.99714844 24.10089844 15.89273438 24.81117188 15.78515625 25.54296875 C15.01934669 28.73311257 13.78394928 31.10545117 12.1640625 33.953125 C10.4045114 37.07016761 8.66917529 40.17209633 7.1015625 43.390625 C6.4415625 43.390625 5.7815625 43.390625 5.1015625 43.390625 C5.1015625 44.710625 5.1015625 46.030625 5.1015625 47.390625 C4.4415625 47.390625 3.7815625 47.390625 3.1015625 47.390625 C2.97861816 47.96554688 2.85567383 48.54046875 2.72900391 49.1328125 C2.07881172 51.47249239 1.1957666 53.37077822 0.0625 55.515625 C-0.34967773 56.2986499 -0.76185547 57.0816748 -1.18652344 57.88842773 C-1.62770508 58.71415283 -2.06888672 59.53987793 -2.5234375 60.390625 C-3.20067871 61.66885132 -3.20067871 61.66885132 -3.89160156 62.97290039 C-6.90696665 68.6301925 -10.06788719 74.16959568 -13.34375 79.6796875 C-14.8532377 82.31180926 -16.20129106 84.97277526 -17.5234375 87.703125 C-20.62049275 94.02347416 -24.06328322 100.13780957 -27.5234375 106.265625 C-28.08627441 107.26505127 -28.64911133 108.26447754 -29.22900391 109.29418945 C-39.63572837 127.63638862 -39.63572837 127.63638862 -50.8984375 131.390625 C-58.02576487 132.16815162 -63.36942119 130.14148245 -69.1484375 126.140625 C-72.34498214 122.94408036 -74.05608494 120.51749473 -75.8984375 116.390625 C-75.79750076 112.25221859 -73.82937332 109.00063546 -71.8984375 105.390625 C-71.2384375 105.390625 -70.5784375 105.390625 -69.8984375 105.390625 C-69.78628906 104.84921875 -69.67414063 104.3078125 -69.55859375 103.75 C-68.75845787 100.89034279 -67.586056 98.33318792 -66.3359375 95.640625 C-65.88089844 94.65578125 -65.42585937 93.6709375 -64.95703125 92.65625 C-64.60769531 91.90859375 -64.25835937 91.1609375 -63.8984375 90.390625 C-63.2384375 90.390625 -62.5784375 90.390625 -61.8984375 90.390625 C-61.8159375 89.71644531 -61.7334375 89.04226562 -61.6484375 88.34765625 C-60.68431596 84.54640623 -58.86208134 81.43230745 -56.8984375 78.078125 C-56.07806006 76.64717265 -55.25774945 75.21618198 -54.4375 73.78515625 C-54.01629883 73.05635254 -53.59509766 72.32754883 -53.16113281 71.57666016 C-51.18143777 68.14932267 -49.22213639 64.7106688 -47.2734375 61.265625 C-46.89840088 60.60280518 -46.52336426 59.93998535 -46.13696289 59.25708008 C-43.11267491 53.86727953 -40.37071925 48.37103543 -37.64453125 42.82421875 C-35.52660272 38.65943312 -33.23217573 34.6203974 -30.88305664 30.58300781 C-28.57558659 26.61073919 -26.40431364 22.58494133 -24.2734375 18.515625 C-18.41591858 7.61081086 -13.28218315 -0.34266465 0 0 Z " fill="#010101" transform="translate(251.8984375,151.609375)"/>
<path d="M0 0 C5.62335936 -0.04946121 11.2465919 -0.08574868 16.87011719 -0.10986328 C18.78290004 -0.1199169 20.69566755 -0.13356173 22.60839844 -0.15087891 C25.35876252 -0.17515522 28.10892328 -0.1864895 30.859375 -0.1953125 C31.71368103 -0.20563507 32.56798706 -0.21595764 33.44818115 -0.22659302 C34.24870911 -0.22674408 35.04923706 -0.22689514 35.87402344 -0.22705078 C36.92659332 -0.23371262 36.92659332 -0.23371262 38.00042725 -0.24050903 C40.33872645 0.04074209 41.96267675 0.84714899 44 2 C44 2.66 44 3.32 44 4 C45.32 4.66 46.64 5.32 48 6 C48 6.66 48 7.32 48 8 C48.66 8 49.32 8 50 8 C50.77923828 9.485 50.77923828 9.485 51.57421875 11 C52.27788938 12.33373271 52.98236914 13.66703872 53.6875 15 C54.05037109 15.68610352 54.41324219 16.37220703 54.78710938 17.07910156 C56.7338173 20.7287467 58.73837034 24.28260236 61 27.75 C63 31 63 31 63 34 C63.66 34 64.32 34 65 34 C65.32871094 34.69222656 65.65742188 35.38445312 65.99609375 36.09765625 C69.3465341 42.98921241 73.01663654 49.53036617 77.10327148 56.01000977 C80 60.6838952 80 60.6838952 80 64 C80.66 64 81.32 64 82 64 C83.19647912 67.52388351 83.02266274 67.94906332 81.375 71.65234375 C80.59557853 73.08744764 79.80310135 74.51551222 79 75.9375 C78.58717773 76.69095703 78.17435547 77.44441406 77.74902344 78.22070312 C76.90708262 79.75635117 76.06040783 81.28941337 75.20898438 82.81982422 C73.52193171 85.86210618 71.8878041 88.93092905 70.25 92 C67.53978855 97.02241983 64.79119817 102.02214888 62 107 C57.09918851 100.57386389 53.23851996 93.66785894 49.42578125 86.5546875 C48.24676386 84.44214675 47.01542165 82.47508658 45.625 80.5 C44 78 44 78 44 75 C43.34 75 42.68 75 42 75 C41.525625 73.989375 41.05125 72.97875 40.5625 71.9375 C38.46110925 67.71976198 36.0674448 63.71272994 33.625 59.6875 C30.44721744 54.44925509 27.40785101 49.16986891 24.50390625 43.7734375 C20.49389141 36.37834521 16.28355105 29.10104687 11.92578125 21.90625 C11.12358154 20.58065063 11.12358154 20.58065063 10.30517578 19.22827148 C9.24924159 17.48819521 8.18920016 15.75060283 7.12451172 14.01586914 C6.63354004 13.20754639 6.14256836 12.39922363 5.63671875 11.56640625 C4.98255981 10.49821655 4.98255981 10.49821655 4.31518555 9.40844727 C2.6456076 6.35101521 1.33623272 3.21707373 0 0 Z " fill="#010101" transform="translate(108,152)"/>
<path d="M0 0 C2.9375 2.5625 2.9375 2.5625 5 5 C5 5.66 5 6.32 5 7 C5.66 7 6.32 7 7 7 C9.63364963 13.09031477 10.14884039 19.82636468 8.3828125 26.2421875 C5.66732634 32.41811619 0.62557155 37.24569119 -5.421875 40.171875 C-11.19492935 42.02625004 -17.66712728 41.95951118 -23.25 39.5 C-29.24822048 36.0318931 -33.88203045 30.59367879 -36 24 C-36.91068004 16.91575644 -36.3126397 10.81823581 -32 5 C-23.29171512 -4.92654235 -11.39721512 -6.13696199 0 0 Z " fill="#090909" transform="translate(235,321)"/>
<path d="M0 0 C3.3125 -0.3125 3.3125 -0.3125 7 0 C9.92172287 3.31128592 10.49846199 6.68677314 11 11 C11.66 11 12.32 11 13 11 C13.90669933 13.26674832 14.81316598 15.53358697 15.71875 17.80078125 C16.65276668 20.13297534 17.59035612 22.46355423 18.53125 24.79296875 C18.92642822 25.77414673 18.92642822 25.77414673 19.32958984 26.77514648 C19.849341 28.06559066 20.37044234 29.35549206 20.89306641 30.64477539 C22.39949924 34.39097058 23.76217929 38.15686141 25 42 C22.36 42 19.72 42 17 42 C14 35.25 14 35.25 14 33 C7.07 33 0.14 33 -7 33 C-7.33 35.31 -7.66 37.62 -8 40 C-10 42 -10 42 -13.625 42.125 C-14.73875 42.08375 -15.8525 42.0425 -17 42 C-15.32197856 32.18447673 -10.62905139 22.97301519 -6.421875 14.02734375 C-4.81644828 10.60919621 -3.28166931 7.16379646 -1.76171875 3.70703125 C-1.20421696 2.45765543 -0.61184119 1.22368237 0 0 Z " fill="#080808" transform="translate(386,319)"/>
<path d="M0 0 C2.64 0 5.28 0 8 0 C8 5.94 8 11.88 8 18 C15.26 18 22.52 18 30 18 C30 12.39 30 6.78 30 1 C32.31 1 34.62 1 37 1 C37 14.86 37 28.72 37 43 C34.69 43 32.38 43 30 43 C30 37.06 30 31.12 30 25 C22.74 25 15.48 25 8 25 C8 30.94 8 36.88 8 43 C5.69 43 3.38 43 1 43 C0 42 0 42 -0.11352539 38.03100586 C-0.1133662 36.25894393 -0.10766785 34.4868774 -0.09765625 32.71484375 C-0.0962413 31.78402481 -0.09482635 30.85320587 -0.09336853 29.8941803 C-0.08775172 26.90858809 -0.0751964 23.92306971 -0.0625 20.9375 C-0.05748716 18.91862087 -0.05292388 16.89974057 -0.04882812 14.88085938 C-0.03777683 9.92054428 -0.02050095 4.96028468 0 0 Z " fill="#090909" transform="translate(320,318)"/>
<path d="M0 0 C10.23 0 20.46 0 31 0 C31 2.31 31 4.62 31 7 C23.08 7 15.16 7 7 7 C7 9.97 7 12.94 7 16 C13.6 16 20.2 16 27 16 C27 18.64 27 21.28 27 24 C20.4 24 13.8 24 7 24 C7 27.63 7 31.26 7 35 C14.92 35 22.84 35 31 35 C31 37.31 31 39.62 31 42 C20.77 42 10.54 42 0 42 C0 28.14 0 14.28 0 0 Z " fill="#060606" transform="translate(117,319)"/>
<path d="M0 0 C3.71066665 3.71066665 4.32337662 6.92177452 4.5625 12 C4.43602613 15.92068986 4.1912129 18.54467444 1.6875 21.625 C-3.59325271 26.29171169 -6.94399443 26.49001568 -13.8203125 26.3828125 C-18.51577759 25.81751081 -20.01930115 24.62517428 -23 21 C-25.43731669 16.90087647 -25.46198275 12.64811214 -25 8 C-24.00363547 4.55104587 -22.83669421 2.24571625 -20 0 C-19.34 0 -18.68 0 -18 0 C-18 -0.66 -18 -1.32 -18 -2 C-11.52600896 -4.07167713 -5.87610598 -3.32609772 0 0 Z " fill="#FCFCFC" transform="translate(232,328)"/>
<path d="M0 0 C1.96875 1.44921875 1.96875 1.44921875 2.75 3.6171875 C2.85828125 4.52404297 2.85828125 4.52404297 2.96875 5.44921875 C1.28125 7.07421875 1.28125 7.07421875 -1.03125 8.44921875 C-3.78125 7.63671875 -3.78125 7.63671875 -6.03125 6.44921875 C-6.03125 5.78921875 -6.03125 5.12921875 -6.03125 4.44921875 C-8.07261395 4.39470161 -10.11440856 4.3561939 -12.15625 4.32421875 C-13.29320312 4.30101562 -14.43015625 4.2778125 -15.6015625 4.25390625 C-19.13209373 4.45496156 -21.79149209 5.04643697 -25.03125 6.44921875 C-26.41983872 8.87807663 -26.41983872 8.87807663 -27.03125 11.44921875 C-27.36125 12.10921875 -27.69125 12.76921875 -28.03125 13.44921875 C-28.56146921 19.5997616 -27.80226599 24.39176921 -24.03125 29.44921875 C-23.04125 29.77921875 -22.05125 30.10921875 -21.03125 30.44921875 C-21.03125 31.10921875 -21.03125 31.76921875 -21.03125 32.44921875 C-10.70142961 32.34176421 -10.70142961 32.34176421 -2.03125 27.44921875 C-0.38125 28.43921875 1.26875 29.42921875 2.96875 30.44921875 C1.16702485 35.03542821 -2.02891608 37.30502794 -6.21875 39.69921875 C-13.16618134 41.55186711 -19.55073028 40.99074714 -25.98828125 37.7890625 C-30.50272892 34.82834443 -34.06534224 30.48300049 -36.03125 25.44921875 C-36.88041871 18.43541178 -37.31997149 11.40892528 -33.40625 5.26171875 C-24.03856084 -6.40950053 -12.37077775 -6.05175393 0 0 Z " fill="#090909" transform="translate(306.03125,321.55078125)"/>
<path d="M0 0 C1.27875 -0.061875 2.5575 -0.12375 3.875 -0.1875 C4.95394531 -0.23970703 4.95394531 -0.23970703 6.0546875 -0.29296875 C6.69664063 -0.19628906 7.33859375 -0.09960938 8 0 C10 3 10 3 10 7 C10.66 7 11.32 7 12 7 C12.23074219 7.73863281 12.46148437 8.47726562 12.69921875 9.23828125 C15.00522631 16.41151426 17.73839465 23.2094446 21 30 C21.66 28.02 22.32 26.04 23 24 C23.66 24 24.32 24 25 24 C25.0928125 22.63875 25.0928125 22.63875 25.1875 21.25 C25.98806641 15.48121266 28.68644269 10.29019023 31 5 C31.67330609 3.33600447 32.3423091 1.670229 33 0 C35.97 0 38.94 0 42 0 C41.34 2.31 40.68 4.62 40 7 C39.34 7 38.68 7 38 7 C37.88011719 7.6909375 37.76023438 8.381875 37.63671875 9.09375 C35.55398473 18.60021692 31.41641149 27.61415021 27.234375 36.35546875 C25.93089588 39.0161383 25.93089588 39.0161383 25 42 C22.36 42 19.72 42 17 42 C16.76925781 41.47792969 16.53851563 40.95585937 16.30078125 40.41796875 C15.97464844 39.68191406 15.64851563 38.94585937 15.3125 38.1875 C14.94511719 37.35734375 14.57773438 36.5271875 14.19921875 35.671875 C13.42480653 33.94647449 12.63665999 32.22714298 11.83203125 30.515625 C7.19993065 20.6218179 3.39565374 10.38007896 0 0 Z " fill="#080808" transform="translate(64,319)"/>
<path d="M0 0 C11.55 0 23.1 0 35 0 C34.67 2.31 34.34 4.62 34 7 C29.71 7 25.42 7 21 7 C21 18.55 21 30.1 21 42 C18.69 42 16.38 42 14 42 C13 41 13 41 12.88647461 37.76538086 C12.88663369 36.33185874 12.89232593 34.89833088 12.90234375 33.46484375 C12.9037587 32.71159317 12.90517365 31.95834259 12.90663147 31.18226624 C12.91224624 28.7673044 12.92480117 26.35243399 12.9375 23.9375 C12.9425131 22.30403779 12.94707634 20.67057414 12.95117188 19.03710938 C12.96222046 15.02470415 12.97949494 11.01236759 13 7 C8.71 7 4.42 7 0 7 C0 4.69 0 2.38 0 0 Z " fill="#090909" transform="translate(414,319)"/>
<path d="M0 0 C2.31 0 4.62 0 7 0 C7 11.55 7 23.1 7 35 C14.59 35 22.18 35 30 35 C30 37.31 30 39.62 30 42 C20.1 42 10.2 42 0 42 C0 28.14 0 14.28 0 0 Z " fill="#020202" transform="translate(162,319)"/>
<path d="M0 0 C0.99 0.66 1.98 1.32 3 2 C3.6875 5.625 3.6875 5.625 4 9 C4.66 9 5.32 9 6 9 C6.33 10.98 6.66 12.96 7 15 C2.71 15 -1.58 15 -6 15 C-3 4.28571429 -3 4.28571429 0 0 Z " fill="#F2F2F2" transform="translate(389,330)"/>
</svg>
